Coordinates
version=1
nRows=4
nColumns=63
inDegrees=yes

Units are S.I. units (second, meters, Newtons, ...)
If the header above contains a line with 'inDegrees', this indicates whether rotational values are in degrees (yes) or radians (no).

endheader
time	pelvis_tilt	pelvis_list	pelvis_rotation	pelvis_tx	pelvis_ty	pelvis_tz	hip_flexion_r	hip_adduction_r	hip_rotation_r	knee_angle_r	knee_angle_r_beta	ankle_angle_r	subtalar_angle_r	mtp_angle_r	hip_flexion_l	hip_adduction_l	hip_rotation_l	knee_angle_l	knee_angle_l_beta	ankle_angle_l	subtalar_angle_l	mtp_angle_l	L5_S1_Flex_Ext	L5_S1_Lat_Bending	L5_S1_axial_rotation	L4_L5_Flex_Ext	L4_L5_Lat_Bending	L4_L5_axial_rotation	L3_L4_Flex_Ext	L3_L4_Lat_Bending	L3_L4_axial_rotation	L2_L3_Flex_Ext	L2_L3_Lat_Bending	L2_L3_axial_rotation	L1_L2_Flex_Ext	L1_L2_Lat_Bending	L1_L2_axial_rotation	L1_T12_Flex_Ext	L1_T12_Lat_Bending	L1_T12_axial_rotation	Abs_r3	Abs_r2	Abs_r1	Abs_t1	Abs_t2	neck_flexion	neck_bending	neck_rotation	arm_flex_r	arm_add_r	arm_rot_r	elbow_flex_r	pro_sup_r	wrist_flex_r	wrist_dev_r	arm_flex_l	arm_add_l	arm_rot_l	elbow_flex_l	pro_sup_l	wrist_flex_l	wrist_dev_l
      0.00000000	      9.69981150	     -4.98799738	     83.89076851	      0.43918231	      0.62320338	      0.71753881	     14.44381439	      6.77683059	     -5.55329374	     15.21314683	      0.26551950	     17.91207265	     -2.99280677	      0.00000000	      7.65253389	     -6.77950468	    -10.26076670	      5.72728888	      0.09996005	     21.90512132	      6.78804636	      0.00000000	      0.14511182	      0.81335150	      0.49318576	      0.26948716	      1.08175749	      0.52400988	      0.23840421	      1.97758283	      0.52400988	      0.16584830	      1.97758283	      0.43153754	      0.13475084	      1.65858637	      0.40071343	      0.08291689	      1.25988147	      0.36988932	      1.03651923	      9.20079479	      2.74295127	      0.00000000	      0.00000000	     27.58730869	     -1.10259185	      6.33443240	      9.34052896	    -14.77212128	     54.18740356	     55.05758301	     12.31478055	    -22.48186555	     31.59226304	     16.55404807	     -7.52792380	     70.27986926	     44.45682165	     88.23857707	      2.85703437	      2.87379427
      0.01666667	      9.43352235	     -4.80739671	     83.30926023	      0.44031379	      0.62330787	      0.71563198	     13.81139840	      6.51589340	     -5.08992721	     15.05908958	      0.26283070	     17.71630660	     -3.04777865	      0.00000000	      7.10276979	     -6.49032319	    -10.12701445	      5.35646457	      0.09348794	     21.25947093	      5.99437083	      0.00000000	      0.14927053	      0.78245200	      0.58739654	      0.27721030	      1.04066115	      0.62410882	      0.24523656	      1.90245378	      0.62410882	      0.17060129	      1.90245378	      0.51397197	      0.13861262	      1.59557611	      0.47725969	      0.08529318	      1.21201814	      0.44054740	      1.06622448	      8.85125347	      3.26692331	      0.00000000	      0.00000000	     27.49864259	     -0.77365427	      6.82651735	      8.72014764	    -14.62385810	     53.03626763	     55.89152984	     11.10331472	    -24.17813488	     31.41930051	     15.07354027	     -7.43428617	     65.92246166	     44.47091979	     87.99310506	      5.33837309	      3.67786455
      0.03333333	      9.26854583	     -4.58653914	     83.27038361	      0.44062354	      0.62339127	      0.71441445	     13.20549579	      6.25628223	     -5.12819956	     14.80296403	      0.25836046	     17.65595193	     -3.00509821	      0.00000000	      6.74828993	     -6.28438238	    -10.04307588	      5.23210861	      0.09131752	     20.94138083	      5.95770035	      0.00000000	      0.13547975	      0.75854690	      0.61727638	      0.25159944	      1.00886738	      0.65585615	      0.22257967	      1.84433094	      0.65585615	      0.15483980	      1.84433094	      0.54011683	      0.12580649	      1.54682885	      0.50153706	      0.07741313	      1.17498915	      0.46295729	      0.96771828	      8.58083429	      3.43310604	      0.00000000	      0.00000000	     27.43416686	     -0.72901282	      6.81479491	      8.51810511	    -14.72910493	     52.73105447	     56.47611861	     10.99365664	    -24.09289357	     31.23584830	     14.83983399	     -7.60370705	     65.07881566	     44.71923718	     87.63231129	      5.47244784	      3.73822433
      0.05000000	      9.11045647	     -4.52015518	     82.89758325	      0.44155605	      0.62331036	      0.71303152	     12.83702921	      6.09161639	     -4.99074438	     14.63801470	      0.25548155	     17.96245241	     -2.31411927	      0.00000000	      6.36588515	     -6.06923559	     -9.03031087	      4.89326031	      0.08540350	     20.55898028	      4.14891562	      0.00000000	      0.13775923	      0.73684148	      0.60780441	      0.25583267	      0.97999916	      0.64579218	      0.22632464	      1.79155636	      0.64579218	      0.15744502	      1.79155636	      0.53182885	      0.12792322	      1.50256714	      0.49384108	      0.07871562	      1.14136745	      0.45585330	      0.98400041	      8.33529814	      3.38042576	      0.00000000	      0.00000000	     27.44754492	     -0.45383473	      7.06821445	      8.36848238	    -14.46577867	     52.66528072	     56.61272625	     11.14526545	    -23.97748197	     30.84499284	     13.14057438	     -7.79636965	     60.26197732	     45.75970562	     87.41569723	      8.16343284	      6.98167277
